<?xml version="1.0" encoding="iso-8859-1"?>
<!-- Uploaded to: SVG Repo, www.svgrepo.com, Generator: SVG Repo Mixer Tools -->
<svg version="1.1" id="Layer_1" xmlns="http://www.w3.org/2000/svg" xmlns:xlink="http://www.w3.org/1999/xlink" 
	 viewBox="0 0 512 512" xml:space="preserve">
<path style="fill:#B7003D;" d="M256,0l-20.898,257.339L256,512c112.458,0,203.623-114.615,203.623-256S368.458,0,256,0z"/>
<path style="fill:#F40C40;" d="M52.377,256c0,141.385,91.165,256,203.623,256V0C143.542,0,52.377,114.615,52.377,256z"/>
<path style="fill:#00CCFF;" d="M365.368,109.507l-19.507-5.54l-1.379-17.901c-3.562-3.346-7.214-6.479-10.946-9.399l-20.85,2.745
	l-6.63-19.659C290.073,52.36,273.195,48.507,256,48.507l-20.898,208.83L256,463.492c39.302,0,76.955-20.126,106.021-56.669
	c31.659-39.803,49.096-93.367,49.096-150.824C411.116,200.602,394.908,148.823,365.368,109.507z"/>
<path style="fill:#6BE7FF;" d="M149.979,105.176c-31.66,39.803-49.096,93.367-49.096,150.824c0,2.957,0.046,5.904,0.138,8.838
	l13.569,10.493l-9.352,29.623c7.004,38.527,22.299,73.656,44.74,101.869c29.067,36.543,66.719,56.669,106.021,56.669V48.507
	C216.698,48.507,179.045,68.633,149.979,105.176z"/>
<g>
	<path style="fill:#CCFFFF;" d="M306.098,59.773L101.033,264.838c0.428,13.67,1.847,27.086,4.216,40.115L333.526,76.676
		C324.78,69.837,315.599,64.173,306.098,59.773z"/>
	<path style="fill:#CCFFFF;" d="M178.152,296.726l187.212-187.212c-1.098-1.462-2.209-2.911-3.344-4.337
		c-5.551-6.978-11.415-13.352-17.543-19.107L155.987,274.561L178.152,296.726z"/>
	
		<rect x="191.266" y="322.416" transform="matrix(-0.7071 0.7071 -0.7071 -0.7071 733.7647 372.2436)" style="fill:#CCFFFF;" width="197.045" height="31.347"/>
</g>
</svg>