<?xml version="1.0" encoding="iso-8859-1"?>
<!-- Uploaded to: SVG Repo, www.svgrepo.com, Generator: SVG Repo Mixer Tools -->
<svg version="1.1" id="Layer_1" xmlns="http://www.w3.org/2000/svg" xmlns:xlink="http://www.w3.org/1999/xlink" 
	 viewBox="0 0 511.999 511.999" xml:space="preserve">
<path style="fill:#FF738D;" d="M383.011,56.981c-2.238,0.08-4.421,0.38-6.526,0.879c-2.105,0.499-4.134,1.196-6.064,2.072
	c-3.378,1.532-6.456,3.61-9.122,6.121c2.665-2.51,5.744-4.587,9.122-6.121c1.931-0.876,3.959-1.574,6.064-2.072
	C378.59,57.36,380.772,57.061,383.011,56.981c-0.404-0.015-0.808-0.031-1.216-0.031H153.163c-18.471,0-33.444,14.973-33.444,33.444
	v291.688h231.065h64.455V90.393C415.239,72.331,400.917,57.622,383.011,56.981z M352.223,80.657
	c0.312-1.026,0.673-2.032,1.078-3.014C352.896,78.625,352.536,79.631,352.223,80.657z M353.944,76.187
	c0.45-0.958,0.945-1.892,1.481-2.797C354.889,74.296,354.394,75.23,353.944,76.187z M356.259,72.052
	c0.866-1.317,1.822-2.568,2.859-3.746C358.081,69.484,357.125,70.737,356.259,72.052z"/>
<circle style="fill:#A5BA6B;" cx="472.011" cy="109.072" r="28.51"/>
<circle style="fill:#E0E381;" cx="39.989" cy="109.072" r="28.51"/>
<rect x="96.767" y="353.95" style="fill:#FFC674;" width="254.027" height="101.094"/>
<path style="fill:#FFA6B7;" d="M350.784,90.393c0-18.062,14.321-32.771,32.227-33.413c-0.404-0.015-0.808-0.031-1.216-0.031h-251.59
	c-18.471,0-33.444,14.973-33.444,33.444v263.559h254.023V90.393z"/>
<path d="M139.833,426.713c-0.746,0-1.492-0.08-2.238-0.23c-0.735-0.149-1.458-0.366-2.147-0.653
	c-0.689-0.287-1.354-0.644-1.986-1.056c-0.62-0.413-1.217-0.895-1.745-1.423c-2.135-2.135-3.352-5.097-3.352-8.116
	c0-0.746,0.069-1.504,0.218-2.25c0.149-0.723,0.367-1.446,0.654-2.147c0.287-0.689,0.643-1.354,1.056-1.974
	c0.413-0.631,0.895-1.218,1.423-1.746c0.528-0.528,1.125-1.01,1.745-1.435c0.631-0.412,1.297-0.769,1.986-1.056
	c0.689-0.287,1.412-0.504,2.147-0.653c1.481-0.3,3.007-0.3,4.488,0c0.735,0.149,1.458,0.366,2.147,0.653
	c0.689,0.287,1.355,0.644,1.986,1.056c0.62,0.425,1.205,0.907,1.733,1.435c0.54,0.528,1.01,1.115,1.435,1.746
	c0.413,0.62,0.769,1.286,1.056,1.974c0.287,0.7,0.505,1.423,0.654,2.147c0.149,0.746,0.23,1.504,0.23,2.25
	c0,3.019-1.228,5.98-3.375,8.116C145.826,425.484,142.864,426.713,139.833,426.713z"/>
<path d="M472.011,69.082c-18.061,0-33.355,12.038-38.302,28.51h-6.992v-7.198c0-24.3-19.017-44.016-43.295-44.885
	c-0.025-0.002-0.051-0.003-0.075-0.003h-0.001c-0.515-0.02-1.03-0.034-1.551-0.034H153.163h-22.958
	c-24.77,0-44.923,20.152-44.923,44.923v7.198H78.29c-4.946-16.472-20.241-28.51-38.302-28.51C17.939,69.082,0,87.021,0,109.071
	s17.939,39.989,39.989,39.989c18.061,0,33.355-12.038,38.302-28.51h6.992v233.403v101.097c0,6.339,5.139,11.479,11.479,11.479
	h254.022c6.34,0,11.479-5.14,11.479-11.479v-61.488h52.976c6.34,0,11.479-5.14,11.479-11.479V120.549h6.992
	c4.946,16.472,20.241,28.51,38.302,28.51c22.05,0,39.989-17.939,39.989-39.989S494.061,69.082,472.011,69.082z M39.989,126.101
	c-9.391,0-17.031-7.64-17.031-17.031s7.64-17.031,17.031-17.031s17.031,7.64,17.031,17.031S49.38,126.101,39.989,126.101z
	 M403.76,90.393v7.198h-41.497v-7.198c0-2.198,0.321-4.318,0.916-6.319c0.008-0.026,0.02-0.051,0.028-0.078
	c0.203-0.667,0.441-1.332,0.706-1.976c0.028-0.067,0.052-0.134,0.078-0.201c0.125-0.298,0.271-0.587,0.41-0.878
	c0.277-0.579,0.576-1.154,0.902-1.703c0-0.001,0.001-0.001,0.001-0.002c0.11-0.188,0.216-0.381,0.333-0.565
	c0.072-0.102,0.143-0.203,0.212-0.309c0.569-0.866,1.204-1.697,1.885-2.47c0.046-0.053,0.086-0.109,0.131-0.163
	c0.36-0.402,0.733-0.79,1.123-1.163c0.061-0.055,0.125-0.102,0.185-0.158c1.771-1.669,3.788-3.022,5.992-4.022
	c1.276-0.58,2.611-1.035,3.969-1.358c0.289-0.069,0.587-0.11,0.879-0.166c0.367-0.071,0.731-0.152,1.105-0.204
	c0.263-0.037,0.529-0.05,0.793-0.078c0.394-0.041,0.787-0.08,1.187-0.101C394.723,69.152,403.76,78.681,403.76,90.393z
	 M108.24,90.393c0-12.111,9.853-21.965,21.965-21.965h214.773c-3.619,6.489-5.673,13.98-5.673,21.965v252.081H151.318V133.499
	c0-6.339-5.139-11.479-11.479-11.479s-11.479,5.14-11.479,11.479v208.975h-20.12V90.393z M339.305,443.57H108.24v-78.139h20.12
	v15.366c0,6.339,5.139,11.479,11.479,11.479s11.479-5.14,11.479-11.479v-15.366h187.987V443.57z M403.76,370.603h-41.497v-16.651
	V120.549h41.497V370.603z M472.011,126.101c-9.391,0-17.031-7.64-17.031-17.031s7.64-17.031,17.031-17.031
	c9.391,0,17.031,7.64,17.031,17.031S481.402,126.101,472.011,126.101z"/>
</svg>